<?xml version="1.0" encoding="UTF-8"?>
<svg width="2541px" height="2541px" viewBox="0 0 2541 2541" version="1.1" xmlns="http://www.w3.org/2000/svg" xmlns:xlink="http://www.w3.org/1999/xlink">
    <title>Group 2</title>
    <g id="Page-1" stroke="none" stroke-width="1" fill="none" fill-rule="evenodd">
        <g id="Group-2">
            <circle id="Oval" fill="#F03102" cx="1270.5" cy="1270.5" r="1270.5"></circle>
            <path d="M883.648936,679 L887.207878,679.009157 C1004.4144,679.613527 1098.00468,710.13422 1167.97872,770.571235 C1238.65957,831.618725 1274,926.135233 1274,1054.12076 C1274,1193.88738 1238.65957,1292.68792 1167.97872,1350.52239 C1097.29787,1408.35685 996.363475,1437.27408 865.175532,1437.27408 L865.175532,1437.27408 L613.776596,1437.27408 L613.776596,1863 L368,1863 L368,1232 L613.776,1232 L613.776596,1233.24695 L844.292553,1233.24695 C902.657801,1233.24695 948.038121,1219.05608 980.433511,1190.67436 C1012.8289,1162.29263 1029.0266,1117.31027 1029.0266,1055.72727 C1029.0266,994.144279 1012.8289,950.232926 980.433511,923.993216 C948.038121,897.753505 902.657801,884.63365 844.292553,884.63365 L844.292553,884.63365 L652,884.633 L652,884 L368,884 L368,679 L883.648936,679 Z" id="Combined-Shape-Copy-4" fill="#FFFFFF" fill-rule="nonzero"></path>
            <path d="M1781.64894,679 L1785.20788,679.009157 C1902.4144,679.613527 1996.00468,710.13422 2065.97872,770.571235 C2136.65957,831.618725 2172,926.135233 2172,1054.12076 C2172,1193.88738 2136.65957,1292.68792 2065.97872,1350.52239 C1995.29787,1408.35685 1894.36348,1437.27408 1763.17553,1437.27408 L1763.17553,1437.27408 L1511.7766,1437.27408 L1511.7766,1863 L1266,1863 L1266,1232 L1511.776,1232 L1511.7766,1233.24695 L1742.29255,1233.24695 C1800.6578,1233.24695 1846.03812,1219.05608 1878.43351,1190.67436 C1910.8289,1162.29263 1927.0266,1117.31027 1927.0266,1055.72727 C1927.0266,994.144279 1910.8289,950.232926 1878.43351,923.993216 C1846.03812,897.753505 1800.6578,884.63365 1742.29255,884.63365 L1742.29255,884.63365 L1550,884.633 L1550,884 L1266,884 L1266,679 L1781.64894,679 Z" id="Combined-Shape-Copy-5" fill="#FFFFFF" fill-rule="nonzero" transform="translate(1719.000000, 1271.000000) rotate(-180.000000) translate(-1719.000000, -1271.000000) "></path>
        </g>
    </g>
</svg>
