<?xml version="1.0" encoding="utf-8"?>
<svg id="master-artboard" viewBox="0 0 1400 980" version="1.1" xmlns="http://www.w3.org/2000/svg" x="0px" y="0px" width="1400px" height="980px" style="enable-background:new 0 0 1400 980;">

<g transform="matrix(1, 0, 0, 1, -2.842170943040401e-14, 0)">
		<path d="M 0 0 H 1400 V 980 H 0 V 0 Z" class="st0" style="fill-rule: evenodd; clip-rule: evenodd; fill: rgb(156, 208, 248); fill-opacity: 0;"/>
		<g>
			<path class="st1" d="M1023.3,290.4L725.1,118.2c-31-17.9-70.9-7.2-88.8,23.8l410.8,237.2C1064.9,348.2,1054.2,308.3,1023.3,290.4&#10;&#9;&#9;&#9;&#9;z" style="fill-rule: evenodd; clip-rule: evenodd; fill: rgb(237, 183, 133);"/>
			<path class="st2" d="M636.2,142L430.3,498.7c-17.9,31-7.2,70.9,23.8,88.8l185.6,107.1c31,17.9,70.9,7.2,88.8-23.8L903.4,368&#10;&#9;&#9;&#9;&#9;l31.1-53.8c17.9-31,57.8-41.7,88.8-23.8L725.1,118.2C694.1,100.3,654.1,111,636.2,142z" style="fill-rule: evenodd; clip-rule: evenodd; fill: rgb(255, 255, 255);"/>
			<path class="st1" d="M615.9,605.9L317.7,433.7c-17.9,31-7.2,70.9,23.8,88.8l298.2,172.2C608.7,676.8,598,636.8,615.9,605.9z" style="fill-rule: evenodd; clip-rule: evenodd; fill: rgb(237, 183, 133);"/>
			
				<path d="M 694.700012 172.899994 H 786.200012 V 438.799988 H 694.700012 V 172.899994 Z" transform="matrix(0.5 -0.866 0.866 0.5 105.3253 794.1773)" class="st0" style="fill-rule: evenodd; clip-rule: evenodd; fill: rgb(156, 208, 248);"/>
			<path d="M 742.400024 356.299988 H 756.900024 V 489.199982 H 742.400024 V 356.299988 Z" transform="matrix(0.5 -0.866 0.866 0.5 8.7181 860.6475)" class="st0" style="fill-rule: evenodd; clip-rule: evenodd; fill: rgb(156, 208, 248);"/>
			
				<path d="M 730.599976 376.700012 H 745.099976 V 509.600006 H 730.599976 V 376.700012 Z" transform="matrix(0.5 -0.866 0.866 0.5 -14.8907 860.6474)" class="st0" style="fill-rule: evenodd; clip-rule: evenodd; fill: rgb(156, 208, 248);"/>
			
				<path d="M 718.799988 397.200012 H 733.299988 V 530.100006 H 718.799988 V 397.200012 Z" transform="matrix(0.5 -0.866 0.866 0.5 -38.4971 860.6519)" class="st0" style="fill-rule: evenodd; clip-rule: evenodd; fill: rgb(156, 208, 248);"/>
			<path d="M 707 417.600006 H 721.5 V 550.5 H 707 V 417.600006 Z" transform="matrix(0.5 -0.866 0.866 0.5 -62.1032 860.6586)" class="st0" style="fill-rule: evenodd; clip-rule: evenodd; fill: rgb(156, 208, 248);"/>
			
				<path d="M 695.200012 438.100006 H 709.700012 V 571 H 695.200012 V 438.100006 Z" transform="matrix(0.5 -0.866 0.866 0.5 -85.7201 860.6428)" class="st0" style="fill-rule: evenodd; clip-rule: evenodd; fill: rgb(156, 208, 248);"/>
			
				<path d="M 683.400024 458.5 H 697.900024 V 591.399994 H 683.400024 V 458.5 Z" transform="matrix(0.5 -0.866 0.866 0.5 -109.3269 860.6501)" class="st0" style="fill-rule: evenodd; clip-rule: evenodd; fill: rgb(156, 208, 248);"/>
			<path d="M 567.799988 324.200012 H 605.999989 V 360.800011 H 567.799988 V 324.200012 Z" transform="matrix(0.5 -0.866 0.866 0.5 -3.1545 679.4867)" class="st1" style="fill-rule: evenodd; clip-rule: evenodd; fill: rgb(237, 183, 133);"/>
			<path d="M 544.200012 365 H 582.400013 V 401.599998 H 544.200012 V 365 Z" transform="matrix(0.5 -0.866 0.866 0.5 -50.2953 679.5318)" class="st1" style="fill-rule: evenodd; clip-rule: evenodd; fill: rgb(237, 183, 133);"/>
			<path d="M 520.599976 405.899994 H 558.799976 V 442.499992 H 520.599976 V 405.899994 Z" transform="matrix(0.5 -0.866 0.866 0.5 -97.4616 679.5323)" class="st1" style="fill-rule: evenodd; clip-rule: evenodd; fill: rgb(237, 183, 133);"/>
			<path d="M 633.700012 330.5 H 648.200012 V 389.599998 H 633.700012 V 330.5 Z" transform="matrix(0.5 -0.866 0.866 0.5 8.7215 735.0895)" class="st0" style="fill-rule: evenodd; clip-rule: evenodd; fill: rgb(156, 208, 248);"/>
			<path d="M 625 345.899994 H 628.1 V 385.699993 H 625 V 345.899994 Z" transform="matrix(0.5 -0.866 0.866 0.5 -3.5379 725.4567)" class="st0" style="fill-rule: evenodd; clip-rule: evenodd; fill: rgb(156, 208, 248);"/>
			<path d="M 610.099976 371.299988 H 624.599976 V 430.399986 H 610.099976 V 371.299988 Z" transform="matrix(0.5 -0.866 0.866 0.5 -38.4528 735.0714)" class="st0" style="fill-rule: evenodd; clip-rule: evenodd; fill: rgb(156, 208, 248);"/>
			<path d="M 601.400024 386.700012 H 604.500024 V 426.500011 H 601.400024 V 386.700012 Z" transform="matrix(0.5 -0.866 0.866 0.5 -50.7036 725.4538)" class="st0" style="fill-rule: evenodd; clip-rule: evenodd; fill: rgb(156, 208, 248);"/>
			<path d="M 586.5 412.100006 H 601 V 471.200005 H 586.5 V 412.100006 Z" transform="matrix(0.5 -0.866 0.866 0.5 -85.6016 735.1057)" class="st0" style="fill-rule: evenodd; clip-rule: evenodd; fill: rgb(156, 208, 248);"/>
			<path d="M 577.799988 427.600006 H 580.899988 V 467.400005 H 577.799988 V 427.600006 Z" transform="matrix(0.5 -0.866 0.866 0.5 -97.8719 725.447)" class="st0" style="fill-rule: evenodd; clip-rule: evenodd; fill: rgb(156, 208, 248);"/>
			<path d="M 660.0999755859375 244.3000030517578 L 802.7000122070312 309.20001220703125 L 802.7000122070312 96 L 660.0999755859375 160.8000030517578 Z" class="st3" style="fill-rule: evenodd; clip-rule: evenodd; fill: rgb(230, 230, 230);"/>
			<path d="M 585.099976 160.800003 H 659.999977 V 244.400002 H 585.099976 V 160.800003 Z" class="st1" style="fill-rule: evenodd; clip-rule: evenodd; fill: rgb(237, 183, 133);"/>
			<path d="M 802.700012 90.199997 H 817.600012 V 314.899994 H 802.700012 V 90.199997 Z" class="st1" style="fill-rule: evenodd; clip-rule: evenodd; fill: rgb(237, 183, 133);"/>
			<path d="M 561.400024 174.5 H 585.200024 V 230.700001 H 561.400024 V 174.5 Z" class="st3" style="fill-rule: evenodd; clip-rule: evenodd; fill: rgb(230, 230, 230);"/>
			<path d="M 602.4000244140625 279 L 640.5999755859375 301.1000061035156 L 640.5999755859375 244.3000030517578 L 602.4000244140625 244.3000030517578 Z" class="st3" style="fill-rule: evenodd; clip-rule: evenodd; fill: rgb(230, 230, 230);"/>
			<path class="st1" d="M836,227.8v21.3c1,0.1,1.9,0.1,2.9,0.1c1,0,1.9,0,2.9-0.1v-21.3c-0.9,0.1-1.9,0.2-2.9,0.2&#10;&#9;&#9;&#9;&#9;C837.9,228,836.9,227.9,836,227.8z" style="fill-rule: evenodd; clip-rule: evenodd; fill: rgb(237, 183, 133);"/>
			<path class="st1" d="M861.7,193.3l18.5-10.7c-0.9-1.7-1.8-3.4-2.9-5l-18.5,10.7C859.9,189.8,860.9,191.5,861.7,193.3z" style="fill-rule: evenodd; clip-rule: evenodd; fill: rgb(237, 183, 133);"/>
			<path class="st1" d="M864.3,164.7c-1.6-1.1-3.2-2-5-2.9l-10.7,18.5c1.8,0.8,3.4,1.7,5,2.9L864.3,164.7z" style="fill-rule: evenodd; clip-rule: evenodd; fill: rgb(237, 183, 133);"/>
			<path class="st1" d="M848.7,225.9l10.7,18.5c1.7-0.9,3.4-1.8,5-2.9L853.7,223C852.1,224.2,850.5,225.2,848.7,225.9z" style="fill-rule: evenodd; clip-rule: evenodd; fill: rgb(237, 183, 133);"/>
			<path class="st1" d="M863.5,200.2c0.1,0.9,0.2,1.9,0.2,2.9s-0.1,1.9-0.2,2.9h21.3c0.1-1,0.1-1.9,0.1-2.9c0-1,0-1.9-0.1-2.9H863.5&#10;&#9;&#9;&#9;&#9;z" style="fill-rule: evenodd; clip-rule: evenodd; fill: rgb(237, 183, 133);"/>
			<path class="st1" d="M858.8,217.9l18.5,10.7c1.1-1.6,2-3.2,2.9-5L861.7,213C860.9,214.7,859.9,216.4,858.8,217.9z" style="fill-rule: evenodd; clip-rule: evenodd; fill: rgb(237, 183, 133);"/>
			<path class="st1" d="M836,157.1v21.3c0.9-0.1,1.9-0.2,2.9-0.2c1,0,1.9,0.1,2.9,0.2v-21.3c-1-0.1-1.9-0.1-2.9-0.1&#10;&#9;&#9;&#9;&#9;C837.9,157,836.9,157,836,157.1z" style="fill-rule: evenodd; clip-rule: evenodd; fill: rgb(237, 183, 133);"/>
		</g>
		
		<g>
			<path d="M 352.20001220703125 205.8000030517578 L 390.20001220703125 168.6999969482422 L 318.79998779296875 86.80000305175781 Z" class="st2" style="fill-rule: evenodd; clip-rule: evenodd; fill: rgb(255, 255, 255);"/>
			<path d="M 390.20001220703125 168.6999969482422 L 439.5 153.5 L 318.79998779296875 86.80000305175781 Z" class="st2" style="fill-rule: evenodd; clip-rule: evenodd; fill: rgb(255, 255, 255);"/>
			<path d="M 374.6000061035156 183.89999389648438 L 396.20001220703125 206.89999389648438 L 390.20001220703125 168.6999969482422 Z" class="st1" style="fill-rule: evenodd; clip-rule: evenodd; fill: rgb(237, 183, 133);"/>
		</g>
		<path class="st3" d="M371.3,304.6c1.1,0.8,2.3,1.6,3.4,2.4l1.1-1.7c-1.1-0.7-2.2-1.5-3.3-2.3L371.3,304.6z" style="fill-rule: evenodd; clip-rule: evenodd; fill: rgb(230, 230, 230);"/>
		
			<path d="M 388.200012 170.699997 H 392.300012 V 172.699997 H 388.200012 V 170.699997 Z" transform="matrix(0.6571 -0.7538 0.7538 0.6571 4.3488 353.0541)" class="st3" style="fill-rule: evenodd; clip-rule: evenodd; fill: rgb(230, 230, 230);"/>
		
			<path d="M 378.799988 181.5 H 382.899988 V 183.5 H 378.799988 V 181.5 Z" transform="matrix(0.6572 -0.7537 0.7537 0.6572 -7.0293 349.6149)" class="st3" style="fill-rule: evenodd; clip-rule: evenodd; fill: rgb(230, 230, 230);"/>
		<path class="st3" d="M397.5,316.8c1.3,0.3,2.7,0.7,4,1l0.4-2c-1.3-0.3-2.7-0.6-3.9-0.9L397.5,316.8z" style="fill-rule: evenodd; clip-rule: evenodd; fill: rgb(230, 230, 230);"/>
		<path class="st3" d="M383.8,311.9c1.2,0.6,2.5,1.2,3.8,1.6l0.8-1.9c-1.2-0.5-2.5-1-3.7-1.6L383.8,311.9z" style="fill-rule: evenodd; clip-rule: evenodd; fill: rgb(230, 230, 230);"/>
		<path class="st3" d="M349.7,227.3l-1.9-0.7c-0.5,1.3-0.9,2.6-1.2,4l2,0.6C348.9,229.8,349.2,228.5,349.7,227.3z" style="fill-rule: evenodd; clip-rule: evenodd; fill: rgb(230, 230, 230);"/>
		<path class="st3" d="M426.1,317.9l0,2c1.4,0,2.8-0.1,4.1-0.2l-0.1-2C428.8,317.8,427.4,317.9,426.1,317.9z" style="fill-rule: evenodd; clip-rule: evenodd; fill: rgb(230, 230, 230);"/>
		<path class="st3" d="M440.2,316.6l0.3,2c1.4-0.2,2.7-0.5,4.1-0.8l-0.4-2C442.8,316.1,441.5,316.4,440.2,316.6z" style="fill-rule: evenodd; clip-rule: evenodd; fill: rgb(230, 230, 230);"/>
		<path class="st3" d="M411.7,319.4c1.4,0.1,2.7,0.3,4.1,0.4l0.1-2c-1.3-0.1-2.7-0.2-4-0.3L411.7,319.4z" style="fill-rule: evenodd; clip-rule: evenodd; fill: rgb(230, 230, 230);"/>
		<path class="st3" d="M344.1,255.2c0.1,1.4,0.3,2.8,0.4,4.1l2-0.3c-0.2-1.3-0.3-2.7-0.4-4L344.1,255.2z" style="fill-rule: evenodd; clip-rule: evenodd; fill: rgb(230, 230, 230);"/>
		<path class="st3" d="M355.6,214.5l-1.7-1.1c-0.7,1.1-1.4,2.4-2,3.6l1.8,1C354.3,216.8,354.9,215.7,355.6,214.5z" style="fill-rule: evenodd; clip-rule: evenodd; fill: rgb(230, 230, 230);"/>
		
			<path d="M 369.399994 192.300003 H 373.499994 V 194.300003 H 369.399994 V 192.300003 Z" transform="matrix(0.6573 -0.7536 0.7536 0.6573 -18.4069 346.1681)" class="st3" style="fill-rule: evenodd; clip-rule: evenodd; fill: rgb(230, 230, 230);"/>
		<path class="st3" d="M346.5,241l-2-0.3c-0.2,1.4-0.3,2.8-0.4,4.1l2,0.1C346.2,243.7,346.3,242.3,346.5,241z" style="fill-rule: evenodd; clip-rule: evenodd; fill: rgb(230, 230, 230);"/>
		<path class="st3" d="M346.7,269.5c0.4,1.3,0.8,2.6,1.3,3.9l1.9-0.7c-0.5-1.3-0.9-2.5-1.3-3.8L346.7,269.5z" style="fill-rule: evenodd; clip-rule: evenodd; fill: rgb(230, 230, 230);"/>
		<path class="st3" d="M360.6,294.8c0.9,1,1.9,2.1,2.8,3l1.5-1.4c-0.9-0.9-1.9-1.9-2.7-2.9L360.6,294.8z" style="fill-rule: evenodd; clip-rule: evenodd; fill: rgb(230, 230, 230);"/>
		<path class="st3" d="M352.3,282.9c0.7,1.2,1.4,2.4,2.1,3.6l1.7-1.1c-0.7-1.1-1.4-2.3-2-3.5L352.3,282.9z" style="fill-rule: evenodd; clip-rule: evenodd; fill: rgb(230, 230, 230);"/>
		<path class="st3" d="M364.1,203.2l-1.5-1.3c-0.9,1-1.8,2.1-2.7,3.1l1.6,1.3C362.3,205.3,363.2,204.3,364.1,203.2z" style="fill-rule: evenodd; clip-rule: evenodd; fill: rgb(230, 230, 230);"/>
		<path class="st3" d="M466.6,307.1l1,1.8c1.2-0.7,2.4-1.4,3.5-2.2l-1.1-1.7C468.9,305.7,467.8,306.4,466.6,307.1z" style="fill-rule: evenodd; clip-rule: evenodd; fill: rgb(230, 230, 230);"/>
		<path class="st3" d="M595.1,255.4c1,0.9,2,1.8,2.9,2.8l1.5-1.4c-1-1-2-1.9-3-2.9L595.1,255.4z" style="fill-rule: evenodd; clip-rule: evenodd; fill: rgb(230, 230, 230);"/>
		<path class="st3" d="M583.5,247.6c1.2,0.6,2.4,1.2,3.6,1.9l1-1.8c-1.2-0.7-2.4-1.3-3.7-1.9L583.5,247.6z" style="fill-rule: evenodd; clip-rule: evenodd; fill: rgb(230, 230, 230);"/>
		<path class="st3" d="M453.8,313l0.7,1.9c1.3-0.5,2.6-1,3.9-1.5l-0.8-1.9C456.4,312.1,455.1,312.6,453.8,313z" style="fill-rule: evenodd; clip-rule: evenodd; fill: rgb(230, 230, 230);"/>
		<path class="st3" d="M570.1,243.5c1.3,0.2,2.6,0.5,3.9,0.8l0.5-2c-1.4-0.3-2.7-0.6-4.1-0.9L570.1,243.5z" style="fill-rule: evenodd; clip-rule: evenodd; fill: rgb(230, 230, 230);"/>
		<path class="st3" d="M615.2,275.6l-1.5,1.4c1,1,1.9,2,3,2.9l1.4-1.5C617.1,277.5,616.1,276.6,615.2,275.6z" style="fill-rule: evenodd; clip-rule: evenodd; fill: rgb(230, 230, 230);"/>
		<path class="st3" d="M639.6,289.2c0.8,0.1,1.6,0.1,2.4,0.1v-2c-0.8,0-1.5,0-2.3-0.1L639.6,289.2z" style="fill-rule: evenodd; clip-rule: evenodd; fill: rgb(230, 230, 230);"/>
		<path class="st3" d="M625.4,285.8c1.3,0.6,2.6,1.1,3.9,1.6l0.7-1.9c-1.3-0.4-2.5-0.9-3.7-1.5L625.4,285.8z" style="fill-rule: evenodd; clip-rule: evenodd; fill: rgb(230, 230, 230);"/>
		<path class="st3" d="M556.1,242.3c1.4,0,2.7,0,4,0.1l0.1-2c-1.4-0.1-2.8-0.1-4.1-0.1V242.3z" style="fill-rule: evenodd; clip-rule: evenodd; fill: rgb(230, 230, 230);"/>
		<path class="st3" d="M604.6,265.8c0.8,1.1,1.7,2.1,2.5,3.2l1.6-1.3l-2.5-3.2L604.6,265.8z" style="fill-rule: evenodd; clip-rule: evenodd; fill: rgb(230, 230, 230);"/>
		<path class="st3" d="M488.4,289.1l1.5,1.4c0.9-1,1.9-2,2.8-3l-1.5-1.4C490.2,287.1,489.3,288.1,488.4,289.1z" style="fill-rule: evenodd; clip-rule: evenodd; fill: rgb(230, 230, 230);"/>
		<path d="M 497.79998779296875 278.29998779296875 L 499.29998779296875 279.70001220703125 L 502 276.5 L 500.3999938964844 275.20001220703125 Z" class="st3" style="fill-rule: evenodd; clip-rule: evenodd; fill: rgb(230, 230, 230);"/>
		<path class="st3" d="M543.5,241.7c-0.6,0.1-1.2,0.3-1.9,0.5l0.6,2c1.3-0.4,2.6-0.6,3.9-0.9l-0.4-2&#10;&#9;&#9;&#9;C544.9,241.3,544.2,241.5,543.5,241.7z" style="fill-rule: evenodd; clip-rule: evenodd; fill: rgb(230, 230, 230);"/>
		<path class="st3" d="M478.1,298.9l1.3,1.6c1.1-0.9,2.1-1.8,3.1-2.7l-1.4-1.5C480.2,297.1,479.2,298,478.1,298.9z" style="fill-rule: evenodd; clip-rule: evenodd; fill: rgb(230, 230, 230);"/>
		<path class="st3" d="M528.3,247.9l1.1,1.7c1.1-0.7,2.3-1.4,3.5-2l-0.9-1.8C530.7,246.5,529.4,247.2,528.3,247.9z" style="fill-rule: evenodd; clip-rule: evenodd; fill: rgb(230, 230, 230);"/>
		<path class="st3" d="M516.8,256.9l1.4,1.5c1-0.9,2-1.8,3-2.7l-1.3-1.5C518.9,255,517.8,255.9,516.8,256.9z" style="fill-rule: evenodd; clip-rule: evenodd; fill: rgb(230, 230, 230);"/>
		<path class="st3" d="M507,267.4l1.6,1.3c0.9-1,1.8-2,2.7-3.1l-1.5-1.4C508.8,265.3,507.9,266.4,507,267.4z" style="fill-rule: evenodd; clip-rule: evenodd; fill: rgb(230, 230, 230);"/>
		<path class="st2" d="M1126.4,449.6h-76.6c-7.8,0-14.3,6.4-14.3,14.3v76.6c0,0.2,0,0.4,0,0.7l0,0l-1,28.8l24.5-15.3h67.4&#10;&#9;&#9;&#9;c7.8,0,14.3-6.4,14.3-14.3v-76.6C1140.7,456,1134.3,449.6,1126.4,449.6z" style="fill-rule: evenodd; clip-rule: evenodd; fill: rgb(255, 255, 255);"/>
		<path class="st1" d="M1062.6,499h9.9c-0.2,6.1-1.3,10.7-3,13.9c-1.8,3.2-4.7,5.6-8.5,7.2l4.5,7.3c6.4-2.9,11.1-7.1,14-12.7&#10;&#9;&#9;&#9;c2.3-4.2,3.4-10.9,3.4-20.2V477h-20.2V499z" style="fill-rule: evenodd; clip-rule: evenodd; fill: rgb(237, 183, 133);"/>
		<path class="st1" d="M1095.1,499h9.9c-0.2,6.1-1.3,10.7-3,13.9c-1.8,3.2-4.7,5.6-8.5,7.2l4.5,7.3c6.4-2.9,11.1-7.1,14-12.7&#10;&#9;&#9;&#9;c2.3-4.2,3.4-10.9,3.4-20.2V477h-20.2V499z" style="fill-rule: evenodd; clip-rule: evenodd; fill: rgb(237, 183, 133);"/>
		<path class="st3" d="M915.2,412.6c1,0.9,2,1.8,2.9,2.8l1.5-1.4c-1-1-2-1.9-3-2.9L915.2,412.6z" style="fill-rule: evenodd; clip-rule: evenodd; fill: rgb(230, 230, 230);"/>
		<path class="st3" d="M924,532.7l-2,0.1c0,1.4,0.1,2.8,0.2,4.1l2-0.2C924.1,535.4,924,534,924,532.7z" style="fill-rule: evenodd; clip-rule: evenodd; fill: rgb(230, 230, 230);"/>
		<path class="st3" d="M923.5,547.1c0.3,1.4,0.6,2.7,0.9,4l2-0.5c-0.3-1.3-0.7-2.6-0.9-3.9L923.5,547.1z" style="fill-rule: evenodd; clip-rule: evenodd; fill: rgb(230, 230, 230);"/>
		<path class="st3" d="M903.6,404.8c1.2,0.6,2.4,1.2,3.5,1.9l1-1.8c-1.2-0.7-2.4-1.4-3.7-2L903.6,404.8z" style="fill-rule: evenodd; clip-rule: evenodd; fill: rgb(230, 230, 230);"/>
		<path class="st3" d="M924.7,508.2l2,0.4c0.3-1.3,0.6-2.6,0.9-4l-2-0.5C925.3,505.5,925,506.8,924.7,508.2z" style="fill-rule: evenodd; clip-rule: evenodd; fill: rgb(230, 230, 230);"/>
		<path class="st3" d="M935.4,438.1c-0.2-0.6-0.4-1.2-0.7-1.8c-0.3-0.7-0.6-1.4-0.9-2.1l-1.9,0.8c0.5,1.2,1,2.5,1.5,3.7L935.4,438.1&#10;&#9;&#9;&#9;z" style="fill-rule: evenodd; clip-rule: evenodd; fill: rgb(230, 230, 230);"/>
		<path d="M 928.2999877929688 494.20001220703125 L 930.2999877929688 494.79998779296875 L 931.4000244140625 490.8999938964844 L 929.4000244140625 490.29998779296875 Z" class="st3" style="fill-rule: evenodd; clip-rule: evenodd; fill: rgb(230, 230, 230);"/>
		<path class="st3" d="M927.8,561c0.5,1.3,1.1,2.6,1.7,3.8l1.9-0.9c-0.6-1.2-1.1-2.5-1.6-3.7L927.8,561z" style="fill-rule: evenodd; clip-rule: evenodd; fill: rgb(230, 230, 230);"/>
		<path class="st3" d="M890.3,400.7c1.3,0.2,2.6,0.5,3.9,0.8l0.5-2c-1.4-0.3-2.7-0.6-4.1-0.8L890.3,400.7z" style="fill-rule: evenodd; clip-rule: evenodd; fill: rgb(230, 230, 230);"/>
		<path class="st3" d="M928.7,425.2c-0.8-1.1-1.6-2.3-2.4-3.4l-1.6,1.2c0.8,1.1,1.6,2.2,2.4,3.3L928.7,425.2z" style="fill-rule: evenodd; clip-rule: evenodd; fill: rgb(230, 230, 230);"/>
		<path class="st3" d="M938.1,452.4c-0.1-1.4-0.2-2.8-0.4-4.2l-2,0.3c0.2,1.3,0.3,2.7,0.4,4L938.1,452.4z" style="fill-rule: evenodd; clip-rule: evenodd; fill: rgb(230, 230, 230);"/>
		<path class="st3" d="M924.9,518.6l-2-0.3c-0.2,1.4-0.4,2.7-0.5,4.1l2,0.2C924.6,521.3,924.7,519.9,924.9,518.6z" style="fill-rule: evenodd; clip-rule: evenodd; fill: rgb(230, 230, 230);"/>
		<path class="st3" d="M861.8,397.6c1.4,0.3,2.7,0.6,4.1,0.8l0.3-2c-1.3-0.2-2.6-0.5-3.9-0.8L861.8,397.6z" style="fill-rule: evenodd; clip-rule: evenodd; fill: rgb(230, 230, 230);"/>
		<path class="st3" d="M876.1,399.3c1.4,0.1,2.7,0.2,4.1,0.3l0.1-2l-4.1-0.3L876.1,399.3z" style="fill-rule: evenodd; clip-rule: evenodd; fill: rgb(230, 230, 230);"/>
		<path class="st3" d="M848.5,391.4c1.1,0.9,2.3,1.6,3.5,2.3l1-1.8c-1.2-0.7-2.2-1.4-3.3-2.2L848.5,391.4z" style="fill-rule: evenodd; clip-rule: evenodd; fill: rgb(230, 230, 230);"/>
		<path class="st3" d="M839.8,382c0.4,0.6,0.9,1.3,1.4,1.9l1.6-1.2c-0.5-0.6-0.9-1.2-1.3-1.8L839.8,382z" style="fill-rule: evenodd; clip-rule: evenodd; fill: rgb(230, 230, 230);"/>
		<path class="st3" d="M935.2,466.6l2,0.3c0.2-1.4,0.4-2.7,0.5-4.1l-2-0.2C935.6,463.9,935.4,465.2,935.2,466.6z" style="fill-rule: evenodd; clip-rule: evenodd; fill: rgb(230, 230, 230);"/>
		<path class="st3" d="M1061.5,579.6l1.8,0.9c0.6-1.2,1.3-2.5,1.8-3.7l-1.9-0.8C1062.7,577.2,1062.1,578.4,1061.5,579.6z" style="fill-rule: evenodd; clip-rule: evenodd; fill: rgb(230, 230, 230);"/>
		<path class="st3" d="M1053.6,591.2l1.6,1.3c0.9-1.1,1.7-2.1,2.6-3.3l-1.7-1.2C1055.3,589.2,1054.5,590.2,1053.6,591.2z" style="fill-rule: evenodd; clip-rule: evenodd; fill: rgb(230, 230, 230);"/>
		<path class="st3" d="M1043.5,601l1.3,1.6c1.1-0.9,2.1-1.7,3.2-2.7l-1.4-1.5C1045.6,599.4,1044.5,600.2,1043.5,601z" style="fill-rule: evenodd; clip-rule: evenodd; fill: rgb(230, 230, 230);"/>
		<path class="st3" d="M1066.7,566.5l2,0.5c0.4-1.3,0.7-2.7,1-4l-2-0.5C1067.4,563.9,1067.1,565.2,1066.7,566.5z" style="fill-rule: evenodd; clip-rule: evenodd; fill: rgb(230, 230, 230);"/>
		<path class="st3" d="M933.2,476.5c-0.3,1.3-0.7,2.6-1,3.9l2,0.5c0.3-1.3,0.7-2.7,1-4L933.2,476.5z" style="fill-rule: evenodd; clip-rule: evenodd; fill: rgb(230, 230, 230);"/>
		<path class="st3" d="M1031.6,608.6l0.9,1.8c1.2-0.6,2.5-1.3,3.7-2l-1-1.8C1034,607.4,1032.8,608,1031.6,608.6z" style="fill-rule: evenodd; clip-rule: evenodd; fill: rgb(230, 230, 230);"/>
		
			<path d="M 1073.300049 536.099976 H 1077.400049 V 538.099976 H 1073.300049 V 536.099976 Z" transform="matrix(0.2492 -0.9685 0.9685 0.2492 287.2913 1444.7363)" class="st3" style="fill-rule: evenodd; clip-rule: evenodd; fill: rgb(230, 230, 230);"/>
		
			<path d="M 1069.800049 549.900024 H 1073.900049 V 551.900024 H 1069.800049 V 549.900024 Z" transform="matrix(0.251 -0.968 0.968 0.251 269.5116 1450.1932)" class="st3" style="fill-rule: evenodd; clip-rule: evenodd; fill: rgb(230, 230, 230);"/>
		
			<path d="M 1076.900024 522.200012 H 1081.000024 V 524.200012 H 1076.900024 V 522.200012 Z" transform="matrix(0.251 -0.968 0.968 0.251 301.6865 1436.3359)" class="st3" style="fill-rule: evenodd; clip-rule: evenodd; fill: rgb(230, 230, 230);"/>
		<path class="st3" d="M963.5,605.6c1.1,0.8,2.3,1.5,3.5,2.2l1-1.8c-1.1-0.7-2.3-1.4-3.4-2.2L963.5,605.6z" style="fill-rule: evenodd; clip-rule: evenodd; fill: rgb(230, 230, 230);"/>
		<path class="st3" d="M942.5,585.8c0.9,1.1,1.7,2.1,2.6,3.2l1.6-1.3c-0.9-1-1.7-2.1-2.6-3.1L942.5,585.8z" style="fill-rule: evenodd; clip-rule: evenodd; fill: rgb(230, 230, 230);"/>
		<path class="st3" d="M952.2,596.5c1,0.9,2,1.9,3.1,2.8l1.3-1.6c-1-0.9-2.1-1.8-3-2.7L952.2,596.5z" style="fill-rule: evenodd; clip-rule: evenodd; fill: rgb(230, 230, 230);"/>
		<path class="st3" d="M934.3,573.9c0.7,1.2,1.4,2.4,2.2,3.5l1.7-1.1c-0.7-1.1-1.5-2.3-2.1-3.4L934.3,573.9z" style="fill-rule: evenodd; clip-rule: evenodd; fill: rgb(230, 230, 230);"/>
		<path class="st3" d="M976.2,612.4c1.3,0.5,2.6,1,3.9,1.5l0.7-1.9c-1.3-0.4-2.5-0.9-3.8-1.4L976.2,612.4z" style="fill-rule: evenodd; clip-rule: evenodd; fill: rgb(230, 230, 230);"/>
		<path class="st3" d="M1004.5,615.6l0.1,2c1.4,0,2.8-0.1,4.1-0.3l-0.2-2C1007.2,615.5,1005.9,615.6,1004.5,615.6z" style="fill-rule: evenodd; clip-rule: evenodd; fill: rgb(230, 230, 230);"/>
		<path class="st3" d="M990.1,616.6c1.4,0.3,2.7,0.5,4.1,0.6l0.2-2c-1.3-0.2-2.7-0.4-4-0.6L990.1,616.6z" style="fill-rule: evenodd; clip-rule: evenodd; fill: rgb(230, 230, 230);"/>
		<path class="st3" d="M1018.4,613.5l0.5,2c1.3-0.3,2.7-0.7,4-1.2l-0.6-1.9C1021,612.8,1019.7,613.2,1018.4,613.5z" style="fill-rule: evenodd; clip-rule: evenodd; fill: rgb(230, 230, 230);"/>
		<path d="M 1033.400013 226.5 A 25.700001 25.700001 0 0 1 1007.700012 252.200001 A 25.700001 25.700001 0 0 1 982.000011 226.5 A 25.700001 25.700001 0 0 1 1007.700012 200.799999 A 25.700001 25.700001 0 0 1 1033.400013 226.5 Z" class="st2" style="fill-rule: evenodd; clip-rule: evenodd; fill: rgb(255, 255, 255);"/>
		<path d="M 1071.600049 170 A 14.8 14.8 0 0 1 1056.800049 184.8 A 14.8 14.8 0 0 1 1042.000049 170 A 14.8 14.8 0 0 1 1056.800049 155.2 A 14.8 14.8 0 0 1 1071.600049 170 Z" class="st1" style="fill-rule: evenodd; clip-rule: evenodd; fill: rgb(237, 183, 133);"/>
		<path d="M 253.700006 631.700012 A 28.1 28.1 0 0 1 225.600006 659.800013 A 28.1 28.1 0 0 1 197.500006 631.700012 A 28.1 28.1 0 0 1 225.600006 603.600012 A 28.1 28.1 0 0 1 253.700006 631.700012 Z" class="st1" style="fill-rule: evenodd; clip-rule: evenodd; fill: rgb(237, 183, 133);"/>
		<path d="M 266.2 532.5 A 15.7 15.7 0 0 1 250.5 548.2 A 15.7 15.7 0 0 1 234.8 532.5 A 15.7 15.7 0 0 1 250.5 516.8 A 15.7 15.7 0 0 1 266.2 532.5 Z" class="st2" style="fill-rule: evenodd; clip-rule: evenodd; fill: rgb(255, 255, 255);"/>
		<path d="M 367.800006 652.099976 A 15.7 15.7 0 0 1 352.100006 667.799975 A 15.7 15.7 0 0 1 336.400006 652.099976 A 15.7 15.7 0 0 1 352.100006 636.399976 A 15.7 15.7 0 0 1 367.800006 652.099976 Z" class="st2" style="fill-rule: evenodd; clip-rule: evenodd; fill: rgb(255, 255, 255);"/>
		<path d="M 1085.700025 264.600006 A 12.8 12.8 0 0 1 1072.900024 277.400006 A 12.8 12.8 0 0 1 1060.100024 264.600006 A 12.8 12.8 0 0 1 1072.900024 251.800006 A 12.8 12.8 0 0 1 1085.700025 264.600006 Z" class="st2" style="fill-rule: evenodd; clip-rule: evenodd; fill: rgb(255, 255, 255);"/>
	<path d="M 923.2386474609375 735.7717895507812" style="fill: rgb(156, 208, 248); fill-opacity: 0; stroke: rgb(0, 0, 0); stroke-opacity: 1; stroke-width: 0; paint-order: fill;"/></g><path class="st1" d="M959,476.7h-80.6c-8.8,0-15.9,7.2-15.9,15.9V522c0,8.8,7.2,15.9,15.9,15.9H959c8.8,0,15.9-7.2,15.9-15.9&#10;&#9;&#9;&#9;v-29.4C975,483.8,967.8,476.7,959,476.7z" style="fill-rule: evenodd; clip-rule: evenodd; fill: rgb(237, 183, 133);" transform="matrix(1, 0, 0, 1, -5.684341886080802e-14, 0)"/><path class="st2" d="M937.1,502.2c4.1,0,7.5-3.3,7.5-7.5c0-4.1-3.3-7.5-7.5-7.5c-4.1,0-7.5,3.3-7.5,7.5c0,0.4,0,0.7,0.1,1.1&#10;&#9;&#9;&#9;l-18.8,6.7c-1.7-2.9-4.8-4.8-8.3-4.8c-5.3,0-9.6,4.3-9.6,9.6c0,5.3,4.3,9.6,9.6,9.6c3.6,0,6.7-1.9,8.3-4.8l18.8,6.7&#10;&#9;&#9;&#9;c0,0.3-0.1,0.7-0.1,1.1c0,4.1,3.3,7.5,7.5,7.5c4.1,0,7.5-3.3,7.5-7.5c0-4.1-3.3-7.5-7.5-7.5c-2.7,0-5.1,1.5-6.4,3.6l-18.7-6.6&#10;&#9;&#9;&#9;c0.2-0.7,0.2-1.4,0.2-2.2c0-0.7-0.1-1.5-0.2-2.2l18.7-6.6C932,500.7,934.4,502.2,937.1,502.2z" style="fill-rule: evenodd; clip-rule: evenodd; fill: rgb(255, 255, 255);" transform="matrix(1, 0, 0, 1, -5.684341886080802e-14, 0)"/><path class="st3" d="M467.3,341.8L467.3,341.8v-73.3c0-4.3-3.5-7.7-7.7-7.7H351.1c-4.3,0-7.7,3.5-7.7,7.7v73.8l-28.6,31v9h181.1&#10;&#9;&#9;&#9;v-9l-28.6-31V341.8z" style="fill-rule: evenodd; clip-rule: evenodd; fill: rgb(230, 230, 230);" transform="matrix(1, 0, 0, 1, -5.684341886080802e-14, 0)"/><path d="M 352.600006 271.600006 H 458.200005 V 331.500008 H 352.600006 V 271.600006 Z" class="st2" style="fill-rule: evenodd; clip-rule: evenodd; fill: rgb(255, 255, 255);" transform="matrix(1, 0, 0, 1, -5.684341886080802e-14, 0)"/><path d="M 352.6000061035156 301.5 L 328.1000061035156 326 L 335.1000061035156 332.8999938964844 L 359.5 308.5 L 368.79998779296875 317.70001220703125 L 376.8999938964844 284.20001220703125 L 343.29998779296875 292.29998779296875 Z" class="st1" style="fill-rule: evenodd; clip-rule: evenodd; fill: rgb(237, 183, 133);" transform="matrix(1, 0, 0, 1, -5.684341886080802e-14, 0)"/><path d="M 364.20001220703125 350.8999938964844 L 353.79998779296875 363.1000061035156 L 456.8999938964844 363.1000061035156 L 446.5 350.8999938964844 Z" class="st2" style="fill-rule: evenodd; clip-rule: evenodd; fill: rgb(255, 255, 255);" transform="matrix(1, 0, 0, 1, -5.684341886080802e-14, 0)"/><path d="M 314.799988 373.299988 H 495.899994 V 382.299988 H 314.799988 V 373.299988 Z" class="st1" style="fill-rule: evenodd; clip-rule: evenodd; fill: rgb(237, 183, 133);" transform="matrix(1, 0, 0, 1, -5.684341886080802e-14, 0)"/>
</svg>